<?xml version="1.0" standalone="no"?>
<!DOCTYPE svg PUBLIC "-//W3C//DTD SVG 20010904//EN"
 "http://www.w3.org/TR/2001/REC-SVG-20010904/DTD/svg10.dtd">
<svg version="1.0" xmlns="http://www.w3.org/2000/svg"
 width="512.000000pt" height="512.000000pt" viewBox="0 0 512.000000 512.000000"
 preserveAspectRatio="xMidYMid meet">
<metadata>
Created by potrace 1.14, written by Peter Selinger 2001-2017
</metadata>
<g transform="translate(0.000000,512.000000) scale(0.100000,-0.100000)"
fill="#000000" stroke="none">
<path d="M2527 4964 c-1 -1 -52 -5 -112 -8 -61 -3 -119 -8 -130 -10 -11 -2
-54 -9 -95 -16 -286 -46 -605 -164 -848 -314 -254 -157 -443 -326 -646 -577
-112 -138 -214 -314 -326 -564 -40 -88 -121 -370 -135 -465 -3 -25 -8 -52 -10
-60 -2 -8 -6 -33 -9 -55 -33 -262 -21 -557 30 -790 9 -38 18 -83 21 -100 16
-97 137 -409 210 -542 42 -77 52 -18 -74 -473 -47 -168 -86 -312 -88 -320 -2
-8 -33 -123 -69 -255 -36 -132 -66 -243 -66 -247 0 -4 30 2 68 12 85 23 477
126 876 231 l309 81 96 -46 c351 -164 660 -237 1026 -240 195 -1 364 16 535
55 25 6 54 12 65 15 11 2 56 14 100 28 374 113 707 311 982 583 153 152 218
231 329 398 169 254 310 611 354 900 6 39 13 81 15 95 22 143 23 441 1 590 -1
14 -7 50 -11 80 -4 30 -9 64 -11 75 -2 11 -6 31 -9 45 -25 135 -111 388 -186
545 -76 160 -237 405 -348 529 -437 491 -1010 773 -1646 812 -111 6 -196 10
-198 8z m333 -423 c30 -6 71 -13 90 -16 47 -8 172 -40 245 -63 667 -217 1189
-809 1319 -1497 9 -44 18 -96 22 -115 3 -19 8 -125 10 -235 4 -277 -29 -478
-117 -718 -201 -544 -655 -989 -1207 -1182 -210 -73 -415 -107 -657 -107 -120
0 -162 3 -270 18 -239 32 -503 125 -718 251 l-77 45 -53 -12 c-28 -7 -142 -36
-252 -65 -399 -106 -438 -116 -441 -112 -3 2 89 346 185 693 8 27 4 40 -29 91
-150 237 -248 501 -291 783 -15 94 -19 431 -6 525 49 367 199 719 426 1000
126 157 324 332 502 442 227 142 557 256 808 279 36 4 68 8 70 10 9 8 390 -5
441 -15z"/>
<path d="M1702 3678 c-62 -10 -105 -40 -173 -122 -107 -127 -155 -255 -158
-423 -4 -235 81 -432 327 -755 107 -141 115 -150 267 -304 237 -240 459 -394
710 -494 44 -17 89 -36 100 -41 49 -22 236 -79 290 -88 105 -17 260 -7 343 22
139 48 280 155 320 241 45 95 68 271 40 309 -17 22 -421 221 -521 257 -69 25
-91 17 -144 -54 -87 -114 -194 -236 -209 -237 -8 -1 -20 -2 -26 -3 -48 -8
-348 149 -457 239 -56 46 -138 121 -174 159 -106 112 -257 330 -257 369 0 19
22 56 72 117 40 49 40 49 81 109 45 65 53 93 39 135 -5 17 -55 139 -111 271
-116 277 -128 294 -214 296 -28 0 -63 1 -77 3 -14 1 -45 -2 -68 -6z"/>
</g>
</svg>
