<?xml version="1.0" standalone="no"?>
<!DOCTYPE svg PUBLIC "-//W3C//DTD SVG 20010904//EN"
 "http://www.w3.org/TR/2001/REC-SVG-20010904/DTD/svg10.dtd">
<svg version="1.0" xmlns="http://www.w3.org/2000/svg"
 width="512.000000pt" height="512.000000pt" viewBox="0 0 512.000000 512.000000"
 preserveAspectRatio="xMidYMid meet">
<metadata>
Created by potrace 1.14, written by Peter Selinger 2001-2017
</metadata>
<g transform="translate(0.000000,512.000000) scale(0.100000,-0.100000)"
fill="#000000" stroke="none">
<path d="M2360 5110 c-524 -39 -1025 -227 -1435 -539 -114 -87 -346 -312 -427
-416 -196 -250 -354 -566 -428 -854 -105 -414 -83 -865 64 -1276 20 -55 81
-190 136 -300 106 -213 130 -290 130 -414 0 -113 -28 -206 -215 -705 -204
-544 -202 -535 -142 -579 15 -12 41 -21 60 -20 17 1 304 110 637 243 333 133
634 252 670 263 52 17 91 21 195 21 117 1 146 -3 280 -36 193 -47 311 -65 515
-79 471 -31 955 67 1381 281 242 122 432 256 626 443 216 210 355 400 483 662
156 319 221 596 223 945 2 365 -66 656 -228 985 -123 250 -243 416 -454 625
-306 304 -649 507 -1079 641 -287 89 -680 132 -992 109z m386 -200 c695 -57
1315 -373 1716 -876 561 -704 605 -1647 110 -2385 -224 -333 -517 -587 -892
-773 -550 -273 -1176 -334 -1785 -173 -110 29 -133 31 -280 32 -123 0 -175 -4
-225 -18 -36 -10 -296 -110 -579 -223 -282 -113 -517 -204 -521 -202 -4 2 54
165 128 363 172 462 175 472 175 655 0 192 -17 255 -124 465 -174 339 -238
554 -259 868 -67 1009 655 1926 1730 2197 269 68 539 91 806 70z"/>
<path d="M1455 3057 c-62 -21 -97 -42 -137 -84 -113 -116 -111 -308 5 -421 62
-61 126 -87 217 -87 91 0 153 26 217 92 141 146 93 393 -93 484 -55 26 -154
34 -209 16z"/>
<path d="M2473 3056 c-91 -30 -148 -81 -188 -169 -24 -51 -27 -68 -23 -135 6
-125 66 -215 177 -265 64 -30 178 -30 242 0 63 28 120 82 149 140 21 40 25 62
25 138 0 105 -23 163 -88 222 -78 70 -202 99 -294 69z"/>
<path d="M3493 3056 c-93 -30 -181 -124 -203 -218 -34 -140 35 -285 168 -350
69 -34 177 -32 252 3 192 90 237 341 87 487 -78 76 -208 110 -304 78z"/>
</g>
</svg>
